<?xml version="1.0" encoding="utf-8"?>
<!-- Generator: Adobe Illustrator 16.0.0, SVG Export Plug-In . SVG Version: 6.00 Build 0)  -->
<!DOCTYPE svg PUBLIC "-//W3C//DTD SVG 1.1//EN" "http://www.w3.org/Graphics/SVG/1.1/DTD/svg11.dtd">
<svg version="1.1" xmlns="http://www.w3.org/2000/svg" xmlns:xlink="http://www.w3.org/1999/xlink" x="0px" y="0px" width="188px"
	 height="93.482px" viewBox="0 0 188 93.482" enable-background="new 0 0 188 93.482" xml:space="preserve">
<g id="Calque_2">
	<path fill="#808080" d="M93.11,68.437L93.11,68.437c0.025-1.561,2.244-2.814,4.962-2.801l77.957,0.399
		c2.715,0.014,4.896,1.288,4.872,2.85l0,0c-0.024,1.56-2.244,2.813-4.958,2.799l-77.959-0.398
		C95.271,71.272,93.088,69.995,93.11,68.437z"/>
	<polygon fill="#D85252" points="48.396,79.997 7.475,68.16 48.759,56.744 	"/>
	<path fill="#D85252" d="M48.195,56.906c0,0-63.81-34.281-40.53,11.212L48.195,56.906z"/>
	<path fill="#D85252" d="M47.688,79.647c0,0-64.354,33.169-39.668-11.551L47.688,79.647z"/>
	<path fill="#D85252" d="M47.152,79.996l0.358-23.253l0,0l84.153,0.43c11.181,0.058,20.161,5.309,20.063,11.729l0,0
		c-0.102,6.422-9.244,11.581-20.424,11.523L47.152,79.996L47.152,79.996L47.152,79.996z"/>
	<path fill="#808080" d="M132.553,80.425c11.179,0.058,20.324-5.1,20.427-11.521c0-0.002,0-0.003,0-0.007l0,0
		c0.099-6.42-8.881-11.672-20.059-11.729c-0.006-0.003-0.009-0.003-0.014-0.003l-1.153-0.002l-0.36,23.253L132.553,80.425z"/>
	<path fill="#808080" d="M176.802,71.582L185,68.793l-8.198-2.787V71.582z"/>
	<path fill="none" d="M-421.257,77.5v-48h48v48H-421.257z"/>
</g>
<g id="Calque_1">
	<text transform="matrix(1.0038 0 0 1 33.2671 67.4229)" fill="#C1272D" font-family="'RageItalic'" font-size="97.3563">D’</text>
	
		<text transform="matrix(1 0 0 1 28.8267 64.5898)" fill="#666666" font-family="'PeignotLTStd-Bold'" font-size="43.0535" letter-spacing="10">ART</text>
</g>
</svg>
