<?xml version="1.0" encoding="utf-8"?>
<!-- Generator: Adobe Illustrator 16.0.0, SVG Export Plug-In . SVG Version: 6.00 Build 0)  -->
<!DOCTYPE svg PUBLIC "-//W3C//DTD SVG 1.1//EN" "http://www.w3.org/Graphics/SVG/1.1/DTD/svg11.dtd">
<svg version="1.1" id="Calque_1" xmlns="http://www.w3.org/2000/svg" xmlns:xlink="http://www.w3.org/1999/xlink" x="0px" y="0px"
	 width="67.5px" height="68.5px" viewBox="4.074 1.737 67.5 68.5" enable-background="new 4.074 1.737 67.5 68.5"
	 xml:space="preserve">
<g opacity="0.2">
	<g>
		<path fill="#231F20" d="M55.631,35.003c-0.094-5.522-4.574-10.442-10.107-10.442c-3.199,0-6.02,1.674-7.875,4.131
			c-1.855-2.457-4.676-4.131-7.875-4.131c-5.532,0-10.012,4.921-10.106,10.442h-0.019c0,0.034,0.007,0.064,0.007,0.099
			c0,0.025-0.007,0.049-0.007,0.076c0,0.155,0.038,0.272,0.045,0.422c0.495,14.07,17.813,19.84,17.813,19.84
			s17.571-5.763,18.092-19.817c0.009-0.157,0.05-0.281,0.05-0.443c0-0.027-0.007-0.052-0.007-0.076c0-0.035,0.007-0.063,0.007-0.099
			L55.631,35.003L55.631,35.003z"/>
	</g>
</g>
<g>
	<g>
		<path fill="#FFFFFF" d="M55.631,33.003c-0.094-5.522-4.574-10.442-10.107-10.442c-3.199,0-6.02,1.674-7.875,4.131
			c-1.855-2.457-4.676-4.131-7.875-4.131c-5.532,0-10.012,4.921-10.106,10.442h-0.019c0,0.034,0.007,0.064,0.007,0.099
			c0,0.025-0.007,0.049-0.007,0.076c0,0.155,0.038,0.272,0.045,0.422c0.495,14.07,17.813,19.84,17.813,19.84
			s17.571-5.763,18.092-19.817c0.009-0.157,0.05-0.281,0.05-0.443c0-0.027-0.007-0.052-0.007-0.076c0-0.035,0.007-0.063,0.007-0.099
			L55.631,33.003L55.631,33.003z"/>
	</g>
</g>
<circle fill="#E52629" cx="37.649" cy="36" r="25"/>
<g>
	<circle fill="#3DC17B" stroke="#CDCDCD" stroke-width="2" stroke-miterlimit="10" cx="38.574" cy="37.237" r="32"/>
</g>
<g>
	<circle fill="#35AE73" stroke="#056938" stroke-width="2" stroke-miterlimit="10" cx="37.649" cy="36" r="32"/>
</g>
<g opacity="0.2">
	<g>
		<path fill="#231F20" d="M55.631,36.004c-0.094-5.522-4.574-10.442-10.107-10.442c-3.199,0-6.02,1.674-7.875,4.131
			c-1.854-2.457-4.676-4.131-7.875-4.131c-5.532,0-10.012,4.921-10.106,10.442h-0.019c0,0.033,0.007,0.063,0.007,0.099
			c0,0.024-0.007,0.049-0.007,0.075c0,0.156,0.038,0.273,0.045,0.422c0.495,14.07,17.813,19.84,17.813,19.84
			S55.079,50.678,55.6,36.622c0.009-0.156,0.05-0.281,0.05-0.443c0-0.026-0.007-0.051-0.007-0.075c0-0.036,0.007-0.064,0.007-0.099
			L55.631,36.004L55.631,36.004z"/>
	</g>
</g>
<g>
	<g>
		<path fill="#FFFFFF" d="M55.631,34.004c-0.094-5.522-4.574-10.442-10.107-10.442c-3.199,0-6.02,1.674-7.875,4.131
			c-1.854-2.457-4.676-4.131-7.875-4.131c-5.532,0-10.012,4.921-10.106,10.442h-0.019c0,0.033,0.007,0.063,0.007,0.099
			c0,0.024-0.007,0.049-0.007,0.075c0,0.156,0.038,0.273,0.045,0.422c0.495,14.07,17.813,19.84,17.813,19.84
			S55.079,48.678,55.6,34.622c0.009-0.156,0.05-0.281,0.05-0.443c0-0.026-0.007-0.051-0.007-0.075c0-0.036,0.007-0.064,0.007-0.099
			L55.631,34.004L55.631,34.004z"/>
	</g>
</g>
</svg>
