<?xml version="1.0" encoding="utf-8"?>
<!-- Generator: Adobe Illustrator 16.0.0, SVG Export Plug-In . SVG Version: 6.00 Build 0)  -->
<!DOCTYPE svg PUBLIC "-//W3C//DTD SVG 1.1//EN" "http://www.w3.org/Graphics/SVG/1.1/DTD/svg11.dtd">
<svg version="1.1" xmlns="http://www.w3.org/2000/svg" xmlns:xlink="http://www.w3.org/1999/xlink" x="0px" y="0px"
	 width="130.667px" height="110.333px" viewBox="0 0 130.667 110.333" enable-background="new 0 0 130.667 110.333"
	 xml:space="preserve">
<g id="Calque_2" display="none">
	<rect display="inline" fill="#C1282D" stroke="#000000" stroke-miterlimit="10" width="130.667" height="110.333"/>
</g>
<g id="Calque_1">
	<rect x="2.667" y="37.335" fill="none" stroke="#000000" stroke-width="4" stroke-miterlimit="10" width="125" height="14"/>
	<rect x="16.667" y="51.668" fill="none" stroke="#000000" stroke-width="4" stroke-miterlimit="10" width="98.667" height="14"/>
	<rect x="24.333" y="66.334" fill="none" stroke="#000000" stroke-width="4" stroke-miterlimit="10" width="83" height="40.833"/>
	
		<rect x="38.667" y="66.334" fill="none" stroke="#000000" stroke-width="4" stroke-miterlimit="10" width="16.667" height="40.833"/>
	
		<rect x="73.333" y="66.335" fill="none" stroke="#000000" stroke-width="4" stroke-miterlimit="10" width="16.667" height="40.833"/>
	<g>
		<path fill="#FFFFFF" d="M10.709,16.397l0.195-0.84c1.418-0.117,3.091-0.404,5.018-0.86c-0.56,1.445-1.054,3.086-1.483,4.922
			l-1.289,5.449c-0.924,3.933-1.965,6.902-3.124,8.907c1.119,0.222,2.107,0.332,2.966,0.332c2.276,0,4.26-0.479,5.951-1.436
			s3.034-2.354,4.029-4.189s1.493-3.86,1.493-6.074c0-2.903-0.846-5.237-2.537-7.002c-1.691-1.764-3.903-2.646-6.635-2.646
			c-2.303,0-4.475,0.547-6.518,1.641s-3.659,2.542-4.849,4.346c-1.19,1.804-1.786,3.558-1.786,5.264
			c0,1.667,0.729,2.891,2.188,3.672c0.417,0.234,0.687,0.437,0.811,0.605c0.124,0.169,0.186,0.378,0.186,0.625
			c0,0.313-0.121,0.589-0.363,0.83c-0.242,0.241-0.52,0.361-0.834,0.361c-0.693,0-1.366-0.456-2.02-1.367
			c-0.889-1.276-1.334-2.584-1.334-3.926c0-2.239,0.667-4.404,2.002-6.494c1.334-2.09,3.193-3.753,5.576-4.99
			c2.383-1.237,5.032-1.855,7.949-1.855c3.594,0,6.455,0.96,8.584,2.881c2.129,1.921,3.193,4.333,3.193,7.236
			c0,2.695-0.742,5.173-2.225,7.432c-1.483,2.259-3.275,3.867-5.377,4.824c-2.101,0.957-4.199,1.436-6.293,1.436
			c-0.676,0-1.848-0.065-3.513-0.195c-1.405-0.104-2.739-0.156-4-0.156c-0.586,0-1.477,0.02-2.674,0.059l0.449-0.957
			c1.197-0.065,1.941-0.169,2.234-0.313c0.293-0.143,0.543-0.384,0.751-0.723c0.377-0.599,0.891-1.901,1.542-3.906l1.346-5.098
			l1.561-6.367c0.078-0.313,0.117-0.579,0.117-0.801c0-0.208-0.065-0.374-0.195-0.498c-0.13-0.124-0.312-0.186-0.546-0.186
			C11.165,16.339,10.982,16.358,10.709,16.397z"/>
		<path fill="#FFFFFF" d="M42.727,18.429l1.289-0.273l-1.465,4.941c-0.586,1.966-1.139,4.232-1.66,6.797
			c-0.287,1.394-0.43,2.292-0.43,2.695c0,0.404,0.163,0.605,0.488,0.605c0.208,0,0.54-0.137,0.996-0.41
			c0.807-0.481,1.582-1.081,2.324-1.797l0.625,0.762c-1.484,1.354-2.435,2.175-2.852,2.461c-0.833,0.573-1.628,0.996-2.383,1.27
			c-0.495,0.182-0.977,0.273-1.445,0.273c-0.339,0-0.593-0.078-0.762-0.234c-0.169-0.156-0.254-0.384-0.254-0.684
			c0-0.195,0.052-0.462,0.156-0.801l0.781-2.656c-1.12,1.341-2.455,2.494-4.004,3.457c-0.951,0.599-1.823,0.898-2.617,0.898
			c-0.755,0-1.335-0.267-1.738-0.801c-0.547-0.716-0.82-1.653-0.82-2.813c0-1.38,0.368-2.917,1.104-4.609
			c0.735-1.692,1.722-3.229,2.959-4.609c1.237-1.38,2.539-2.396,3.906-3.047c1.055-0.495,2.409-0.742,4.063-0.742
			c0.417,0,0.84,0.026,1.27,0.078L42.727,18.429z M40.305,21.417c-0.703-0.143-1.296-0.215-1.777-0.215
			c-1.172,0-2.194,0.322-3.066,0.967c-0.873,0.645-1.683,1.804-2.432,3.477c-0.749,1.673-1.123,3.343-1.123,5.01
			c0,0.886,0.149,1.523,0.449,1.914c0.299,0.391,0.69,0.586,1.172,0.586c0.898,0,1.862-0.485,2.891-1.455
			c1.028-0.97,1.784-2.366,2.266-4.189L40.305,21.417z"/>
		<path fill="#FFFFFF" d="M51.672,15.753l3.101-1.189L53.37,20.03h4.044l-0.313,1.387h-4.047l-1.704,6.545
			c-0.541,1.965-0.811,3.332-0.811,4.099c0,0.352,0.075,0.605,0.225,0.762c0.149,0.156,0.354,0.234,0.615,0.234
			c0.403,0,1.022-0.241,1.855-0.723c1.094-0.638,2.135-1.36,3.125-2.168l0.742,0.898c-2.852,2.148-4.759,3.464-5.723,3.945
			c-0.964,0.481-1.738,0.723-2.324,0.723c-0.482,0-0.863-0.176-1.143-0.527c-0.28-0.352-0.42-0.924-0.42-1.719
			c0-0.938,0.247-2.37,0.742-4.297l1.988-7.773h-3.164l0.352-1.387h3.167L51.672,15.753z"/>
		<path fill="#FFFFFF" d="M69.23,30.284l0.645,0.859c-3.19,3.034-5.925,4.551-8.203,4.551c-0.925,0-1.631-0.313-2.119-0.938
			s-0.732-1.627-0.732-3.008c0-2.786,0.846-5.56,2.539-8.32c1.901-3.138,4.173-4.707,6.816-4.707c0.924,0,1.631,0.231,2.119,0.693
			c0.488,0.462,0.732,1.097,0.732,1.904c0,0.847-0.293,1.68-0.879,2.5s-1.634,1.673-3.145,2.559c-0.755,0.43-2.37,1.205-4.844,2.324
			c-0.117,0.703-0.176,1.374-0.176,2.012c0,0.925,0.146,1.569,0.439,1.934c0.293,0.365,0.719,0.547,1.279,0.547
			c0.534,0,1.12-0.149,1.758-0.449C66.32,32.342,67.577,31.521,69.23,30.284z M62.395,27.452c2.096-0.938,3.672-1.946,4.727-3.027
			c0.716-0.755,1.074-1.504,1.074-2.246c0-0.56-0.146-1.006-0.439-1.338s-0.674-0.498-1.143-0.498c-0.482,0-0.951,0.183-1.406,0.547
			c-0.612,0.482-1.126,1.211-1.543,2.188C63.065,24.51,62.642,25.968,62.395,27.452z"/>
		<path fill="#FFFFFF" d="M77.336,17.257l-0.332-1.25c1.094-0.963,1.807-1.735,2.139-2.314c0.332-0.579,0.498-1.129,0.498-1.65
			c0-0.286-0.156-0.723-0.469-1.309c-0.248-0.469-0.371-0.905-0.371-1.309c0-0.534,0.156-0.967,0.469-1.299s0.709-0.498,1.191-0.498
			c0.508,0,0.931,0.192,1.27,0.576c0.338,0.384,0.508,0.889,0.508,1.514c0,1.094-0.355,2.236-1.064,3.428
			C80.464,14.337,79.185,15.708,77.336,17.257z"/>
		<path fill="#FFFFFF" d="M104.152,34.327l-0.195,1.113c-0.469,0.039-0.879,0.059-1.23,0.059c-0.508,0-1.121-0.039-1.836-0.117
			c-1.225-0.13-2-0.195-2.324-0.195c-0.547,0-1.387,0.084-2.52,0.254c0.402-1.016,0.742-2.083,1.016-3.203
			c0.195-0.794,0.402-2.161,0.625-4.102c-1.521-0.013-3.881,0.02-7.078,0.098c-3.316,5.052-5.744,8.226-7.287,9.521
			c-1.543,1.295-3.012,1.943-4.404,1.943c-0.729,0-1.272-0.14-1.631-0.42c-0.357-0.28-0.537-0.642-0.537-1.084
			c0-0.339,0.104-0.619,0.313-0.84c0.209-0.222,0.469-0.332,0.781-0.332c0.183,0,0.43,0.032,0.742,0.098
			c0.781,0.182,1.302,0.273,1.563,0.273c0.872,0,1.836-0.495,2.891-1.484c1.718-1.614,4.254-5,7.611-10.156
			c3.799-5.833,6.877-10.078,9.232-12.734c-3.213,0.287-5.215,0.56-6.008,0.82c-1.094,0.352-1.912,0.873-2.459,1.563
			c-0.547,0.69-0.818,1.394-0.818,2.109c0,0.234,0.084,0.566,0.254,0.996c0.182,0.482,0.273,0.833,0.273,1.055
			c0,0.287-0.111,0.541-0.332,0.762c-0.223,0.222-0.488,0.332-0.801,0.332c-0.443,0-0.799-0.166-1.064-0.498
			c-0.268-0.332-0.4-0.83-0.4-1.494c0-0.938,0.244-1.846,0.732-2.725s1.188-1.614,2.1-2.207c0.91-0.592,2.051-1.045,3.418-1.357
			c0.703-0.169,1.939-0.319,3.711-0.449c1.537-0.13,2.502-0.254,2.895-0.371c0.611-0.169,1.199-0.501,1.76-0.996
			c-0.393,1.602-0.672,3.001-0.842,4.199l-1.525,11.289l-0.881,8.086c0.963,0.248,1.828,0.371,2.598,0.371
			C103,34.503,103.553,34.444,104.152,34.327z M97.863,26.69c0.625-5.286,1.25-9.147,1.875-11.582
			c-1.65,2.19-2.67,3.572-3.061,4.145L91.66,26.69c1.078,0.039,2.619,0.059,4.623,0.059C96.777,26.749,97.303,26.729,97.863,26.69z"
			/>
		<path fill="#FFFFFF" d="M110.598,35.187h-2.91l1.367-5.254c0.664-2.578,1.244-5.026,1.738-7.344
			c0.117-0.573,0.176-0.931,0.176-1.074c0-0.313-0.143-0.469-0.43-0.469c-0.195,0-0.494,0.134-0.898,0.4
			c-0.402,0.267-1.133,0.928-2.188,1.982l-0.605-0.684c1.25-1.341,2.496-2.347,3.738-3.018c1.244-0.67,2.197-1.006,2.861-1.006
			c0.234,0,0.42,0.056,0.557,0.166c0.137,0.111,0.205,0.251,0.205,0.42c0,0.17-0.086,0.622-0.258,1.354l-0.85,3.514
			c1.318-2.078,2.805-3.856,4.463-5.333c0.795-0.706,1.461-1.059,1.996-1.059c0.391,0,0.717,0.127,0.979,0.381
			c0.26,0.254,0.391,0.55,0.391,0.889c0,0.352-0.127,0.651-0.381,0.898c-0.254,0.248-0.887,0.541-1.902,0.879
			c-0.963,0.326-1.746,0.717-2.352,1.172c-0.605,0.456-1.268,1.153-1.99,2.09c-0.723,0.938-1.227,1.755-1.514,2.452
			s-0.725,2.314-1.313,4.853L110.598,35.187z"/>
		<path fill="#FFFFFF" d="M124.445,15.753l3.102-1.189l-1.404,5.467h4.045l-0.313,1.387h-4.047l-1.703,6.545
			c-0.541,1.965-0.813,3.332-0.813,4.099c0,0.352,0.076,0.605,0.225,0.762c0.15,0.156,0.355,0.234,0.615,0.234
			c0.404,0,1.023-0.241,1.855-0.723c1.094-0.638,2.137-1.36,3.125-2.168l0.742,0.898c-2.852,2.148-4.758,3.464-5.723,3.945
			c-0.963,0.481-1.738,0.723-2.324,0.723c-0.48,0-0.861-0.176-1.143-0.527c-0.279-0.352-0.42-0.924-0.42-1.719
			c0-0.938,0.248-2.37,0.742-4.297l1.988-7.773h-3.164l0.352-1.387h3.168L124.445,15.753z"/>
	</g>
</g>
<g id="Calque_3">
</g>
</svg>
