<?xml version="1.0" encoding="utf-8"?>
<!-- Generator: Adobe Illustrator 16.0.0, SVG Export Plug-In . SVG Version: 6.00 Build 0)  -->
<!DOCTYPE svg PUBLIC "-//W3C//DTD SVG 1.1//EN" "http://www.w3.org/Graphics/SVG/1.1/DTD/svg11.dtd">
<svg version="1.1" id="Calque_1" xmlns="http://www.w3.org/2000/svg" xmlns:xlink="http://www.w3.org/1999/xlink" x="0px" y="0px"
	 width="144.75px" height="57.177px" viewBox="0 0 144.75 57.177" enable-background="new 0 0 144.75 57.177" xml:space="preserve">
<g id="Calque_2">
	<path fill="none" d="M-442.007,58V10h48v48H-442.007z"/>
</g>
<g id="Calque_1_1_">
	<g>
		<path fill="#C1272D" d="M1.258,1.537h15.789c5.689,0,10.082,1.573,13.179,4.72c3.097,3.147,4.646,6.94,4.646,11.384
			c0,2.831-0.705,5.504-2.113,8.02c-1.408,2.516-3.473,4.471-6.191,5.864c-2.718,1.395-6.003,2.093-9.859,2.093H1.258V1.537z
			 M15.449,13.814v7.525h0.357c1.709,0,2.945-0.297,3.709-0.894c0.764-0.595,1.146-1.572,1.146-2.932c0-2.467-1.438-3.7-4.311-3.7
			L15.449,13.814L15.449,13.814z"/>
	</g>
	<line fill="none" stroke="#C1272D" stroke-width="3" stroke-miterlimit="10" x1="1.25" y1="32.117" x2="120.75" y2="32.117"/>
	<line fill="none" stroke="#C1272D" stroke-width="3" stroke-miterlimit="10" x1="68.125" y1="32.117" x2="144.75" y2="32.117"/>
	<g>
		<path fill="#4D4D4D" d="M92.381,39.252h-5.066l-6.056,10.48c-2.854,4.963-6.237,7.444-10.152,7.444
			c-2.402,0-4.418-0.862-6.046-2.588s-2.441-3.862-2.441-6.412c0-2.071,0.628-4.069,1.884-5.989c1.256-1.922,2.97-3.516,5.141-4.783
			c1.621-0.928,3.419-1.579,5.396-1.959c1.977-0.377,4.604-0.565,7.885-0.565h1.354l1.445-2.651
			c2.012-3.695,4.469-6.159,7.371-7.392c1.866-0.792,4.305-1.188,7.317-1.188c0.769,0,1.372,0.171,1.812,0.512
			c0.438,0.342,0.657,0.817,0.657,1.427c0,0.281-0.071,0.61-0.219,0.988l-0.165,0.421L99.35,34.88h1.392h0.476
			c1.365,0,2.049,0.593,2.049,1.774c0,0.72-0.281,1.332-0.842,1.838c-0.561,0.507-1.244,0.76-2.049,0.76h-0.493h-2.306l-2.03,4.993
			h2.981h0.476c1.366,0,2.05,0.586,2.05,1.756c0,0.731-0.281,1.353-0.842,1.856c-0.563,0.507-1.244,0.76-2.049,0.76h-0.494h-3.914
			c-1.05,0-1.906-0.271-2.57-0.814c-0.664-0.542-0.996-1.246-0.996-2.111c0-0.672,0.25-1.623,0.75-2.854L92.381,39.252z
			 M81.771,39.252h-1.556c-3.487,0-6.256,0.646-8.305,1.938c-1.305,0.83-2.345,1.867-3.118,3.109c-0.775,1.244-1.162,2.5-1.162,3.77
			c0,1.158,0.372,2.148,1.116,2.973c0.743,0.823,1.646,1.234,2.707,1.234c1.841,0,3.47-1.221,4.884-3.658L81.771,39.252z
			 M94.173,34.88l2.636-6.494c-1.293,0.086-2.383,0.497-3.267,1.234s-1.894,2.075-3.026,4.016l-0.75,1.244H94.173z"/>
		<path fill="#4D4D4D" d="M108.277,38.63l-0.623,1.536c-0.562,1.366-1.293,2.049-2.194,2.049c-0.549,0-1.006-0.165-1.372-0.494
			c-0.365-0.328-0.549-0.736-0.549-1.226c0-0.28,0.134-0.756,0.402-1.427l2.066-5.104c0.5-1.231,1.207-1.848,2.122-1.848
			c0.902,0,1.457,0.428,1.664,1.28l0.146,0.566c0.074,0.293,0.184,0.477,0.33,0.549c0.146,0.073,0.506,0.11,1.078,0.11h4.281
			c1.598,0,2.396,0.562,2.396,1.683c0,1.549-1.012,2.323-3.037,2.323l-0.2,0.183c-1.938,1.854-2.908,3.287-2.908,4.299
			c0,1.014,0.562,1.52,1.683,1.52h2.306c1.549,0,2.323,0.536,2.323,1.609c0,0.756-0.271,1.342-0.814,1.756
			c-0.542,0.415-1.302,0.622-2.277,0.622h-3.584c-1.221,0-2.218-0.421-2.992-1.263c-0.773-0.842-1.16-1.934-1.16-3.273
			c0-0.854,0.207-1.684,0.621-2.488s1.146-1.793,2.195-2.963L108.277,38.63L108.277,38.63z"/>
		<path fill="#4D4D4D" d="M128.143,34.624h0.566c1.549,0,2.323,0.542,2.323,1.628c0,0.743-0.274,1.323-0.823,1.737
			c-0.549,0.415-1.305,0.622-2.27,0.622h-1.334l-2.451,6.019h2.049c1.549,0,2.322,0.542,2.322,1.628
			c0,0.743-0.271,1.323-0.813,1.737c-0.543,0.415-1.302,0.622-2.276,0.622h-3.274c-0.927,0-1.661-0.213-2.204-0.641
			s-0.813-1.007-0.813-1.737c0-0.451,0.108-0.951,0.328-1.5l0.348-0.806l2.158-5.322h-0.273c-1.366,0-2.049-0.53-2.049-1.592
			c0-0.756,0.271-1.345,0.814-1.766c0.541-0.421,1.301-0.631,2.276-0.631h0.841l0.971-2.396l0.2-0.494
			c0.573-1.354,1.476-2.029,2.707-2.029c0.5,0,0.931,0.168,1.29,0.503s0.54,0.741,0.54,1.217c0,0.463-0.159,1.05-0.478,1.757
			L128.143,34.624z"/>
	</g>
	<line fill="none" stroke="#C1272D" stroke-width="3" stroke-miterlimit="10" x1="93.646" y1="32.117" x2="101.792" y2="32.117"/>
	<g>
		<path fill="#4D4D4D" d="M46.322,27.035h1.851c1.413,0,2.119,0.494,2.119,1.48c0,0.685-0.252,1.22-0.757,1.607
			c-0.505,0.387-1.2,0.58-2.086,0.58h-2.153c-0.965,0-1.621-0.376-1.969-1.127c-0.841,0.751-1.654,1.127-2.439,1.127H38.97
			c-1.233,0-2.229-0.44-2.986-1.32c-0.757-0.881-1.135-2.033-1.135-3.458c0-2.153,0.742-4.079,2.229-5.778
			c1.487-1.699,3.166-2.549,5.039-2.549c1.436,0,2.484,0.499,3.146,1.497c0.561-0.841,1.296-1.262,2.204-1.262
			c0.493,0,0.905,0.157,1.236,0.471c0.331,0.314,0.497,0.701,0.497,1.161c0,0.314-0.091,0.689-0.27,1.127l-0.186,0.455
			L46.322,27.035z M40.215,27.12h0.421c0.919,0,1.53-0.376,1.834-1.128l1.178-2.91c0.156-0.381,0.235-0.701,0.235-0.959
			c0-0.303-0.149-0.566-0.446-0.791c-0.297-0.224-0.653-0.336-1.068-0.336c-0.818,0-1.615,0.477-2.389,1.43
			c-0.774,0.953-1.161,1.94-1.161,2.961C38.818,26.542,39.284,27.12,40.215,27.12z"/>
		<path fill="#4D4D4D" d="M59.344,17.833h0.521c1.424,0,2.137,0.499,2.137,1.497c0,0.685-0.252,1.218-0.757,1.599
			c-0.505,0.381-1.2,0.572-2.086,0.572H57.93l-2.255,5.534h1.885c1.424,0,2.137,0.5,2.137,1.498c0,0.684-0.25,1.217-0.749,1.598
			c-0.499,0.383-1.197,0.572-2.095,0.572h-3.011c-0.853,0-1.528-0.196-2.027-0.589c-0.499-0.393-0.749-0.925-0.749-1.599
			c0-0.414,0.102-0.874,0.303-1.379l0.32-0.74l1.984-4.896h-0.252c-1.256,0-1.884-0.488-1.884-1.464
			c0-0.695,0.249-1.236,0.748-1.624c0.499-0.387,1.197-0.58,2.095-0.58h0.773l0.892-2.204l0.186-0.454
			c0.527-1.245,1.356-1.867,2.49-1.867c0.459,0,0.854,0.154,1.186,0.463c0.332,0.309,0.496,0.681,0.496,1.118
			c0,0.427-0.146,0.965-0.438,1.615L59.344,17.833z"/>
		<path fill="#4D4D4D" d="M65.333,25.773c0,0.842,0.634,1.262,1.901,1.262h4.996c1.413,0,2.12,0.5,2.12,1.498
			c0,0.684-0.25,1.217-0.748,1.598c-0.5,0.383-1.198,0.572-2.096,0.572h-4.761c-1.772,0-3.121-0.438-4.046-1.313
			c-0.926-0.875-1.388-2.153-1.388-3.836c0-2.164,0.731-4.031,2.195-5.602c1.464-1.571,3.205-2.355,5.224-2.355
			c1.469,0,2.649,0.384,3.541,1.152s1.338,1.78,1.338,3.037c0,1.514-0.617,2.636-1.852,3.364c-0.685,0.415-1.705,0.622-3.063,0.622
			L65.333,25.773L65.333,25.773z M66.141,22.712h1.851c1.2,0,1.783-0.264,1.75-0.791c-0.034-0.594-0.421-0.892-1.161-0.892
			C67.548,21.029,66.734,21.591,66.141,22.712z"/>
	</g>
	<g>
		<path fill="#C1272D" d="M77.346,5.152c0.787,0,1.471,0.258,2.051,0.772c0.578,0.514,0.869,1.158,0.869,1.931
			c0,0.595-0.189,1.114-0.567,1.557c-0.402,0.466-0.896,0.699-1.483,0.699c-0.636,0-0.938-0.004-0.904-0.012
			c-0.313,0.056-0.472,0.273-0.472,0.651s0.151,0.657,0.452,0.839c0.302,0.181,0.453,0.348,0.453,0.5
			c0,0.442-0.258,0.664-0.771,0.664c-0.797,0-1.509-0.378-2.137-1.135c-0.595-0.724-0.893-1.491-0.893-2.304
			C73.941,6.54,75.076,5.152,77.346,5.152z"/>
	</g>
</g>
</svg>
